# xmcd
#
# Track frame offsets: 
#        150
#        15317
#        35951
#        61607
#        85889
#        103370
#        122668
#        140114
#        162630
#        181756
#        194141
#
# Disc length: 2870 seconds
#
# Revision: 1
# Processed by: cddbd v1.5.2PL0 Copyright (c) Steve Scherf et al.
# Submitted via: ExactAudioCopy v1.5
#
DISCID=9e0b340b
DTITLE=Brooke Miller - Familiar
DYEAR=2012
DGENRE=Folk
TTITLE0=What You Know
TTITLE1=You Can See Everything
TTITLE2=There You are
TTITLE3=Everywhere
TTITLE4=Familiar (Piano Version)
TTITLE5=Shake It Off
TTITLE6=A.M. Song
TTITLE7=Two Soldiers
TTITLE8=Say That Dear
TTITLE9=Familiar (Guitar Version)
TTITLE10=Quite Night
EXTD=
EXTT0=
EXTT1=
EXTT2=
EXTT3=
EXTT4=
EXTT5=
EXTT6=
EXTT7=
EXTT8=
EXTT9=
EXTT10=
PLAYORDER=
